<mxfile host="app.diagrams.net" modified="2023-11-11T19:39:01.758Z" agent="Mozilla/5.0 (Windows NT 10.0; Win64; x64) AppleWebKit/537.36 (KHTML, like Gecko) Chrome/119.0.0.0 Safari/537.36" etag="gXmplcAYub1reoEATueA" version="22.1.0" type="device">
  <diagram name="Page-1" id="0kuBdTZjnYdmdgP4rt4D">
    <mxGraphModel dx="1434" dy="800" grid="1" gridSize="10" guides="1" tooltips="1" connect="1" arrows="1" fold="1" page="1" pageScale="1" pageWidth="850" pageHeight="1100" math="0" shadow="0">
      <root>
        <mxCell id="0" />
        <mxCell id="1" parent="0" />
        <mxCell id="GJ4v0h3TfGZe_H8GMcTj-5" style="edgeStyle=orthogonalEdgeStyle;rounded=0;orthogonalLoop=1;jettySize=auto;html=1;entryX=0;entryY=0.5;entryDx=0;entryDy=0;endArrow=none;endFill=0;startArrow=ERmandOne;startFill=0;strokeWidth=2;" edge="1" parent="1" source="GJ4v0h3TfGZe_H8GMcTj-1" target="GJ4v0h3TfGZe_H8GMcTj-4">
          <mxGeometry relative="1" as="geometry" />
        </mxCell>
        <mxCell id="GJ4v0h3TfGZe_H8GMcTj-1" value="&lt;font style=&quot;font-size: 20px;&quot;&gt;Alumnos&lt;/font&gt;" style="whiteSpace=wrap;html=1;align=center;" vertex="1" parent="1">
          <mxGeometry x="160" y="130" width="120" height="60" as="geometry" />
        </mxCell>
        <mxCell id="GJ4v0h3TfGZe_H8GMcTj-6" style="edgeStyle=orthogonalEdgeStyle;rounded=0;orthogonalLoop=1;jettySize=auto;html=1;entryX=1;entryY=0.5;entryDx=0;entryDy=0;endArrow=none;endFill=0;startArrow=ERzeroToMany;startFill=0;strokeWidth=2;" edge="1" parent="1" source="GJ4v0h3TfGZe_H8GMcTj-2" target="GJ4v0h3TfGZe_H8GMcTj-4">
          <mxGeometry relative="1" as="geometry" />
        </mxCell>
        <mxCell id="GJ4v0h3TfGZe_H8GMcTj-2" value="&lt;font style=&quot;font-size: 20px;&quot;&gt;Asistencias&lt;/font&gt;" style="whiteSpace=wrap;html=1;align=center;" vertex="1" parent="1">
          <mxGeometry x="600" y="130" width="120" height="60" as="geometry" />
        </mxCell>
        <mxCell id="GJ4v0h3TfGZe_H8GMcTj-4" value="&lt;font style=&quot;font-size: 20px;&quot;&gt;tiene&lt;/font&gt;" style="shape=rhombus;perimeter=rhombusPerimeter;whiteSpace=wrap;html=1;align=center;" vertex="1" parent="1">
          <mxGeometry x="380" y="130" width="120" height="60" as="geometry" />
        </mxCell>
        <mxCell id="GJ4v0h3TfGZe_H8GMcTj-7" value="&lt;font style=&quot;font-size: 20px;&quot;&gt;Parametros&lt;/font&gt;" style="whiteSpace=wrap;html=1;align=center;" vertex="1" parent="1">
          <mxGeometry x="380" y="320" width="120" height="60" as="geometry" />
        </mxCell>
        <mxCell id="GJ4v0h3TfGZe_H8GMcTj-15" style="rounded=0;orthogonalLoop=1;jettySize=auto;html=1;entryX=0.25;entryY=1;entryDx=0;entryDy=0;endArrow=none;endFill=0;" edge="1" parent="1" source="GJ4v0h3TfGZe_H8GMcTj-9" target="GJ4v0h3TfGZe_H8GMcTj-1">
          <mxGeometry relative="1" as="geometry" />
        </mxCell>
        <mxCell id="GJ4v0h3TfGZe_H8GMcTj-9" value="&lt;font style=&quot;font-size: 15px;&quot;&gt;nombre&lt;/font&gt;" style="ellipse;whiteSpace=wrap;html=1;align=center;" vertex="1" parent="1">
          <mxGeometry x="140" y="230" width="70" height="30" as="geometry" />
        </mxCell>
        <mxCell id="GJ4v0h3TfGZe_H8GMcTj-16" style="rounded=0;orthogonalLoop=1;jettySize=auto;html=1;entryX=0.75;entryY=1;entryDx=0;entryDy=0;endArrow=none;endFill=0;" edge="1" parent="1" source="GJ4v0h3TfGZe_H8GMcTj-10" target="GJ4v0h3TfGZe_H8GMcTj-1">
          <mxGeometry relative="1" as="geometry" />
        </mxCell>
        <mxCell id="GJ4v0h3TfGZe_H8GMcTj-10" value="&lt;font style=&quot;font-size: 15px;&quot;&gt;apellido&lt;/font&gt;" style="ellipse;whiteSpace=wrap;html=1;align=center;" vertex="1" parent="1">
          <mxGeometry x="230" y="230" width="80" height="30" as="geometry" />
        </mxCell>
        <mxCell id="GJ4v0h3TfGZe_H8GMcTj-13" style="edgeStyle=orthogonalEdgeStyle;rounded=0;orthogonalLoop=1;jettySize=auto;html=1;endArrow=none;endFill=0;" edge="1" parent="1" source="GJ4v0h3TfGZe_H8GMcTj-11" target="GJ4v0h3TfGZe_H8GMcTj-1">
          <mxGeometry relative="1" as="geometry" />
        </mxCell>
        <mxCell id="GJ4v0h3TfGZe_H8GMcTj-11" value="&lt;font style=&quot;font-size: 15px;&quot;&gt;fecha_nacimiento&lt;/font&gt;" style="ellipse;whiteSpace=wrap;html=1;align=center;" vertex="1" parent="1">
          <mxGeometry x="150" y="50" width="140" height="40" as="geometry" />
        </mxCell>
        <mxCell id="GJ4v0h3TfGZe_H8GMcTj-20" style="edgeStyle=orthogonalEdgeStyle;rounded=0;orthogonalLoop=1;jettySize=auto;html=1;entryX=0.5;entryY=0;entryDx=0;entryDy=0;endArrow=none;endFill=0;" edge="1" parent="1" source="GJ4v0h3TfGZe_H8GMcTj-19" target="GJ4v0h3TfGZe_H8GMcTj-2">
          <mxGeometry relative="1" as="geometry" />
        </mxCell>
        <mxCell id="GJ4v0h3TfGZe_H8GMcTj-19" value="&lt;font style=&quot;font-size: 15px;&quot;&gt;fecha_hora&lt;/font&gt;" style="ellipse;whiteSpace=wrap;html=1;align=center;" vertex="1" parent="1">
          <mxGeometry x="610" y="60" width="100" height="30" as="geometry" />
        </mxCell>
        <mxCell id="GJ4v0h3TfGZe_H8GMcTj-25" style="edgeStyle=orthogonalEdgeStyle;rounded=0;orthogonalLoop=1;jettySize=auto;html=1;endArrow=none;endFill=0;" edge="1" parent="1" source="GJ4v0h3TfGZe_H8GMcTj-22" target="GJ4v0h3TfGZe_H8GMcTj-7">
          <mxGeometry relative="1" as="geometry" />
        </mxCell>
        <mxCell id="GJ4v0h3TfGZe_H8GMcTj-22" value="&lt;font style=&quot;font-size: 15px;&quot;&gt;cdad_clases&lt;/font&gt;" style="ellipse;whiteSpace=wrap;html=1;align=center;" vertex="1" parent="1">
          <mxGeometry x="540" y="335" width="100" height="30" as="geometry" />
        </mxCell>
        <mxCell id="GJ4v0h3TfGZe_H8GMcTj-26" style="edgeStyle=orthogonalEdgeStyle;rounded=0;orthogonalLoop=1;jettySize=auto;html=1;entryX=0.5;entryY=1;entryDx=0;entryDy=0;endArrow=none;endFill=0;" edge="1" parent="1" source="GJ4v0h3TfGZe_H8GMcTj-23" target="GJ4v0h3TfGZe_H8GMcTj-7">
          <mxGeometry relative="1" as="geometry" />
        </mxCell>
        <mxCell id="GJ4v0h3TfGZe_H8GMcTj-23" value="&lt;font style=&quot;font-size: 15px;&quot;&gt;porc_promocion&lt;/font&gt;" style="ellipse;whiteSpace=wrap;html=1;align=center;" vertex="1" parent="1">
          <mxGeometry x="370" y="420" width="140" height="40" as="geometry" />
        </mxCell>
        <mxCell id="GJ4v0h3TfGZe_H8GMcTj-27" style="edgeStyle=orthogonalEdgeStyle;rounded=0;orthogonalLoop=1;jettySize=auto;html=1;entryX=0;entryY=0.5;entryDx=0;entryDy=0;endArrow=none;endFill=0;" edge="1" parent="1" source="GJ4v0h3TfGZe_H8GMcTj-24" target="GJ4v0h3TfGZe_H8GMcTj-7">
          <mxGeometry relative="1" as="geometry" />
        </mxCell>
        <mxCell id="GJ4v0h3TfGZe_H8GMcTj-24" value="&lt;font style=&quot;font-size: 15px;&quot;&gt;porc_regular&lt;/font&gt;" style="ellipse;whiteSpace=wrap;html=1;align=center;" vertex="1" parent="1">
          <mxGeometry x="240" y="330" width="100" height="40" as="geometry" />
        </mxCell>
        <mxCell id="GJ4v0h3TfGZe_H8GMcTj-30" style="edgeStyle=orthogonalEdgeStyle;rounded=0;orthogonalLoop=1;jettySize=auto;html=1;entryX=1;entryY=0.5;entryDx=0;entryDy=0;endArrow=none;endFill=0;" edge="1" parent="1" source="GJ4v0h3TfGZe_H8GMcTj-28" target="GJ4v0h3TfGZe_H8GMcTj-2">
          <mxGeometry relative="1" as="geometry" />
        </mxCell>
        <mxCell id="GJ4v0h3TfGZe_H8GMcTj-28" value="&lt;font style=&quot;font-size: 15px;&quot;&gt;id&lt;/font&gt;" style="ellipse;whiteSpace=wrap;html=1;align=center;fontStyle=4;" vertex="1" parent="1">
          <mxGeometry x="760" y="145" width="40" height="30" as="geometry" />
        </mxCell>
        <mxCell id="GJ4v0h3TfGZe_H8GMcTj-33" style="edgeStyle=orthogonalEdgeStyle;rounded=0;orthogonalLoop=1;jettySize=auto;html=1;entryX=0;entryY=0.5;entryDx=0;entryDy=0;endArrow=none;endFill=0;" edge="1" parent="1" source="GJ4v0h3TfGZe_H8GMcTj-32" target="GJ4v0h3TfGZe_H8GMcTj-1">
          <mxGeometry relative="1" as="geometry" />
        </mxCell>
        <mxCell id="GJ4v0h3TfGZe_H8GMcTj-32" value="&lt;font style=&quot;font-size: 15px;&quot;&gt;dni&lt;/font&gt;" style="ellipse;whiteSpace=wrap;html=1;align=center;fontStyle=4;" vertex="1" parent="1">
          <mxGeometry x="80" y="145" width="40" height="30" as="geometry" />
        </mxCell>
      </root>
    </mxGraphModel>
  </diagram>
</mxfile>
